# xmcd
#
# Track frame offsets: 
#        150
#        20721
#        33810
#        57216
#        69902
#        86781
#        98317
#        112709
#        129463
#        150208
#        167449
#
# Disc length: 2393 seconds
#
# Revision: 0
# Processed by: cddbd v1.5.2PL0 Copyright (c) Steve Scherf et al.
# Submitted via: ExactAudioCopy v0.95b1
#
DISCID=6f09570b
DTITLE=Lew Jetton and 61 south  - State Line Blues 
DYEAR=2000
DGENRE=Blues
TTITLE0=Curse The Day
TTITLE1=Betcha
TTITLE2=What's Wrong
TTITLE3=House Cat Blues
TTITLE4=Getting Colder
TTITLE5=Show Me
TTITLE6=Hushpuppies!
TTITLE7=State Line Blues
TTITLE8=Homegrown Tomato
TTITLE9=Bad Boy
TTITLE10=Heavy Weather
EXTD=
EXTT0=
EXTT1=
EXTT2=
EXTT3=
EXTT4=
EXTT5=
EXTT6=
EXTT7=
EXTT8=
EXTT9=
EXTT10=
PLAYORDER=
